<?xml version="1.0" encoding="iso-8859-1"?>
<!-- Uploaded to: SVG Repo, www.svgrepo.com, Generator: SVG Repo Mixer Tools -->
<svg version="1.1" id="Layer_1" xmlns="http://www.w3.org/2000/svg" xmlns:xlink="http://www.w3.org/1999/xlink" 
	 viewBox="0 0 460.799 460.799" xml:space="preserve">
<g transform="translate(0 -952.36)">
	<path style="fill:#24566D;" d="M460.799,1182.76c0,127.246-103.153,230.4-230.4,230.4c0,0,0,0,0,0
		c-127.246,0-230.4-103.153-230.4-230.4c0,0,0,0,0,0c0-127.246,103.153-230.4,230.4-230.4c0,0,0,0,0,0
		C357.646,952.36,460.799,1055.513,460.799,1182.76L460.799,1182.76z"/>
	<g transform="translate(139.35)">
		<path style="fill:#DEDEDE;" d="M-37.567,1099.617h257.258c6.882,0,12.422,5.54,12.422,12.422v149.504
			c0,6.882-5.54,12.423-12.422,12.423H-37.567c-6.882,0-12.422-5.54-12.422-12.423V1112.04
			C-49.989,1105.158-44.449,1099.617-37.567,1099.617L-37.567,1099.617z"/>
		<path style="fill:#EAECF0;" d="M-56.45,1091.522h295.024c2.794,0,5.044,2.249,5.044,5.044v6.725c0,2.794-2.249,5.044-5.044,5.044
			H-56.45c-2.794,0-5.044-2.249-5.044-5.044v-6.725C-61.493,1093.772-59.244,1091.522-56.45,1091.522z"/>
		<g>
			<path style="fill:#F9F9F9;" d="M46.23,1207.34h89.665v55.418H46.23V1207.34z"/>
			<rect x="25.895" y="1170.701" style="fill:#F9F9F9;" width="14.807" height="10.24"/>
			<rect x="64.398" y="1170.701" style="fill:#F9F9F9;" width="14.807" height="10.24"/>
			<rect x="-12.607" y="1186.675" style="fill:#F9F9F9;" width="14.807" height="10.071"/>
			<rect x="-12.607" y="1186.675" style="fill:#F9F9F9;" width="14.807" height="10.24"/>
			<rect x="6.644" y="1186.675" style="fill:#F9F9F9;" width="14.807" height="10.24"/>
			<rect x="25.895" y="1186.675" style="fill:#F9F9F9;" width="14.807" height="10.24"/>
			<rect x="45.147" y="1186.675" style="fill:#F9F9F9;" width="72.556" height="10.24"/>
			<rect x="45.147" y="1170.701" style="fill:#F9F9F9;" width="14.807" height="10.24"/>
			<rect x="102.9" y="1170.701" style="fill:#F9F9F9;" width="14.807" height="10.24"/>
			<rect x="83.649" y="1170.701" style="fill:#F9F9F9;" width="14.807" height="10.24"/>
			<rect x="122.151" y="1170.701" style="fill:#F9F9F9;" width="14.807" height="10.24"/>
			<rect x="141.403" y="1170.701" style="fill:#F9F9F9;" width="14.807" height="10.24"/>
			<rect x="141.403" y="1186.522" style="fill:#F9F9F9;" width="14.807" height="10.24"/>
			<rect x="122.151" y="1186.522" style="fill:#F9F9F9;" width="14.807" height="10.24"/>
			<rect x="160.654" y="1186.522" style="fill:#F9F9F9;" width="14.807" height="10.24"/>
			<rect x="179.91" y="1186.522" style="fill:#F9F9F9;" width="14.807" height="10.24"/>
			<rect x="160.654" y="1170.701" style="fill:#F9F9F9;" width="34.058" height="10.24"/>
			<rect x="-12.607" y="1170.701" style="fill:#F9F9F9;" width="34.058" height="10.24"/>
			<rect x="-12.607" y="1153.498" style="fill:#F9F9F9;" width="23.987" height="10.24"/>
			<rect x="18.062" y="1153.498" style="fill:#F9F9F9;" width="14.807" height="10.24"/>
			<rect x="39.515" y="1153.447" style="fill:#F9F9F9;" width="14.807" height="10.24"/>
			<rect x="61.019" y="1153.447" style="fill:#F9F9F9;" width="14.807" height="10.24"/>
			<rect x="82.471" y="1153.447" style="fill:#F9F9F9;" width="14.807" height="10.24"/>
			<rect x="103.924" y="1153.447" style="fill:#F9F9F9;" width="14.807" height="10.24"/>
			<rect x="125.428" y="1153.447" style="fill:#F9F9F9;" width="14.807" height="10.24"/>
			<rect x="146.881" y="1153.447" style="fill:#F9F9F9;" width="14.807" height="10.24"/>
			<rect x="168.334" y="1153.447" style="fill:#F9F9F9;" width="26.358" height="10.24"/>
			<rect x="160.654" y="1136.858" style="fill:#F9F9F9;" width="34.058" height="10.24"/>
			<rect x="25.895" y="1136.858" style="fill:#F9F9F9;" width="14.807" height="10.24"/>
			<rect x="45.147" y="1136.858" style="fill:#F9F9F9;" width="14.807" height="10.24"/>
			<rect x="64.398" y="1136.858" style="fill:#F9F9F9;" width="14.807" height="10.24"/>
			<rect x="83.649" y="1136.858" style="fill:#F9F9F9;" width="14.807" height="10.24"/>
			<rect x="102.9" y="1136.858" style="fill:#F9F9F9;" width="14.807" height="10.24"/>
			<rect x="122.151" y="1136.858" style="fill:#F9F9F9;" width="14.807" height="10.24"/>
			<rect x="141.403" y="1136.858" style="fill:#F9F9F9;" width="14.807" height="10.24"/>
			<rect x="-12.607" y="1136.858" style="fill:#F9F9F9;" width="14.807" height="10.24"/>
			<rect x="6.644" y="1136.858" style="fill:#F9F9F9;" width="14.807" height="10.24"/>
			<rect x="6.644" y="1123.904" style="fill:#F9F9F9;" width="14.807" height="7.68"/>
			<rect x="179.91" y="1123.904" style="fill:#F9F9F9;" width="14.807" height="7.68"/>
			<rect x="-12.607" y="1123.904" style="fill:#F9F9F9;" width="14.807" height="7.68"/>
			<rect x="45.147" y="1123.904" style="fill:#F9F9F9;" width="14.807" height="7.68"/>
			<rect x="25.895" y="1123.904" style="fill:#F9F9F9;" width="14.807" height="7.68"/>
			<rect x="83.649" y="1123.904" style="fill:#F9F9F9;" width="14.807" height="7.68"/>
			<rect x="64.398" y="1123.904" style="fill:#F9F9F9;" width="14.807" height="7.68"/>
			<rect x="122.151" y="1123.904" style="fill:#F9F9F9;" width="14.807" height="7.68"/>
			<rect x="102.9" y="1123.904" style="fill:#F9F9F9;" width="14.807" height="7.68"/>
			<rect x="160.654" y="1123.904" style="fill:#F9F9F9;" width="14.807" height="7.68"/>
			<rect x="141.403" y="1123.904" style="fill:#F9F9F9;" width="14.807" height="7.68"/>
		</g>
	</g>
</g>
</svg>